<svg aria-hidden="true" style="position:absolute;width:0;height:0;overflow:hidden" xmlns="http://www.w3.org/2000/svg"><defs><symbol id="icon-call" viewBox="0 0 32 32"><path d="m27.4 20.8-4-.2c-1.2 0-2.4.2-2.8.9l-3.2 3.2A26.2 26.2 0 0 1 6.9 13.5l3-3.2c.6-.7 1-1.6.8-2.5l-.4-4.4C10 1.8 8.5.7 6.9.7h-3C2.3.7.5 2 .7 4c.9 14 12.1 25.2 26.3 26.3 1.8 0 3.4-1.6 3.4-3.4v-2.8c0-1.8-1.4-3.2-3-3.4z"/></symbol><symbol id="icon-email" viewBox="0 0 43 32"><path d="M37.3 0h-32c-2.1 0-4 1.9-4 4v24c0 2.1 1.9 4 4 4h32c2.2 0 4-1.9 4-4V4c0-2.1-1.8-4-4-4zm-.8 8.5-14.1 8.8c-.5.6-1.6.6-2.1 0L6 8.5a1.6 1.6 0 1 1 2-2.6H8l13.3 8 13.4-8c.2-.2.6-.3.9-.3a1.6 1.6 0 0 1 1 3z"/></symbol><symbol id="icon-person" viewBox="0 0 32 32"><path d="M16 16a8 8 0 0 0 0-16 8 8 0 0 0 0 16zm0 4c-5.3 0-16 2.7-16 8v2.1C0 31.2.8 32 2.1 32H30c1.3 0 2.1-.8 2.1-2.1V28c0-5.3-10.7-8-16-8z"/></symbol></defs></svg>